<?xml version="1.0" encoding="UTF-8"?>

<svg width="24px" height="23px" viewBox="0 0 24 23" version="1.1" xmlns="http://www.w3.org/2000/svg" xmlns:xlink="http://www.w3.org/1999/xlink">
    <defs>
        <polygon id="path-1" points="9.12464053e-06 0.130055612 23.7902589 0.130055612 23.7902589 23 9.12464053e-06 23"></polygon>
    </defs>
    <g id="Page-1" stroke="none" stroke-width="1" fill="none" fill-rule="evenodd">
        <g id="download">
            <g id="Group-14">
                <g id="Fill-12-Clipped">
                    <mask id="mask-2" fill="white">
                        <use xlink:href="#path-1"></use>
                    </mask>
                    <g id="path-3"></g>
                    <path d="M11.8945631,19.2116653 C8.21557282,19.2116653 4.30520388,18.1391143 4.30520388,16.1477367 C4.30520388,14.9505633 5.71794175,14.0852469 7.64353398,13.5851143 C7.77052427,13.8676857 7.92500971,14.1371143 8.10442718,14.3891755 C6.22170874,14.8336857 5.15126214,15.5640531 5.15126214,16.1477367 C5.15126214,16.4073082 5.36656311,16.6966857 5.76990291,16.9766755 C5.79739806,16.8975837 5.83817476,16.8236551 5.89060194,16.7586449 C6.30256311,16.224951 7.55196117,15.7860735 9.31328155,15.5673388 C10.8767767,16.6194714 12.9151456,16.6194714 14.4786408,15.5673388 C16.2334369,15.7851347 17.4807379,16.2216653 17.8975922,16.7523082 C17.9523495,16.8189612 17.9947573,16.8952367 18.0224854,16.9771449 C18.4262913,16.6971551 18.6411262,16.4054306 18.6411262,16.1477367 C18.6411262,15.5640531 17.5702136,14.8336857 15.6881942,14.3887061 C15.8678447,14.1368796 16.0220971,13.867451 16.1483883,13.5846449 C18.0749126,14.0847776 19.4878835,14.9505633 19.4878835,16.1477367 C19.4888155,18.1391143 15.5756505,19.2116653 11.8945631,19.2116653 Z M11.8945631,7.93603265 C13.9354951,7.93626735 15.5900971,9.60306327 15.5896311,11.6587469 C15.5893981,13.7146653 13.9345631,15.3809918 11.8936311,15.3807571 C9.85339806,15.3805224 8.19926214,13.7149 8.19856311,11.6596857 C8.19949515,9.60400204 9.85363107,7.93767551 11.8945631,7.93603265 Z M23.6375534,17.3794102 L12.6774757,0.528389796 C12.3316893,-0.00272244898 11.460233,-0.00272244898 11.1165437,0.528389796 L0.153436893,17.3794102 C-0.129669903,17.8135939 -0.00990291262,18.3970429 0.421398058,18.6824306 C0.506213592,18.7385224 0.599650485,18.780298 0.697980583,18.8061143 L11.6566602,22.9698184 C11.8118447,23.0101857 11.9744854,23.0101857 12.1296699,22.9698184 L23.0920777,18.8061143 C23.5914175,18.6746857 23.8901359,18.1604714 23.7596505,17.6577571 C23.7340194,17.5594204 23.6927767,17.4657776 23.6375534,17.3808184 L23.6375534,17.3794102 Z" id="Fill-12" fill="#FFFFFF" fill-rule="nonzero" mask="url(#mask-2)"></path>
                </g>
            </g>
        </g>
    </g>
</svg>